<svg viewBox="0 0 1110 1086" width="1110" height="1086" xmlns="http://www.w3.org/2000/svg">
<rect width="1110" height="1086" fill="#05050A"/>
<rect x="24" y="24" width="1062" height="1038" fill="none" stroke="#14141F"/>
<text x="555.0" y="88" text-anchor="middle" fill="#E9E4D6" font-family="Georgia,serif" font-size="30" letter-spacing="14">THE KEY HE GAVE</text>
<text x="555.0" y="118" text-anchor="middle" fill="#77748A" font-family="monospace" font-size="12" letter-spacing="3">LAYOUT TEMPLATE  ·  surface hand only  ·  23 cells  ·  J Q V absent</text>
<text x="555.0" y="146" text-anchor="middle" fill="#4A4A5E" font-family="monospace" font-size="11" letter-spacing="2">order = first appearance in msg01   ·   X and Z trail because the poem never teaches them</text>
<g transform="translate(60,190)">
<rect width="150" height="168" rx="8" fill="#0C0C14" stroke="#E06A3C" stroke-width="1.6"/>
<rect x="34" y="26" width="82" height="84" rx="4" fill="none" stroke="#1E1E2A" stroke-dasharray="4 4"/>
<text x="75.0" y="74" text-anchor="middle" fill="#2E2E3C" font-family="monospace" font-size="11">place</text>
<text x="75.0" y="92" text-anchor="middle" fill="#E06A3C" font-family="monospace" font-size="13" font-weight="bold">glyph O</text>
<text x="75.0" y="132" text-anchor="middle" fill="#E06A3C" font-family="monospace" font-size="10" letter-spacing="1">MISLABELLED</text>
<text x="75.0" y="158" text-anchor="middle" fill="#E9E4D6" font-family="Georgia,serif" font-size="26" letter-spacing="2">I</text>
</g>
<g transform="translate(228,190)">
<rect width="150" height="168" rx="8" fill="#0C0C14" stroke="#1E1E2A" stroke-width="1"/>
<rect x="34" y="26" width="82" height="84" rx="4" fill="none" stroke="#1E1E2A" stroke-dasharray="4 4"/>
<text x="75.0" y="74" text-anchor="middle" fill="#2E2E3C" font-family="monospace" font-size="11">place</text>
<text x="75.0" y="92" text-anchor="middle" fill="#77748A" font-family="monospace" font-size="13" font-weight="bold">glyph A</text>
<text x="75.0" y="158" text-anchor="middle" fill="#E9E4D6" font-family="Georgia,serif" font-size="26" letter-spacing="2">A</text>
</g>
<g transform="translate(396,190)">
<rect width="150" height="168" rx="8" fill="#0C0C14" stroke="#E06A3C" stroke-width="1.6"/>
<rect x="34" y="26" width="82" height="84" rx="4" fill="none" stroke="#1E1E2A" stroke-dasharray="4 4"/>
<text x="75.0" y="74" text-anchor="middle" fill="#2E2E3C" font-family="monospace" font-size="11">place</text>
<text x="75.0" y="92" text-anchor="middle" fill="#E06A3C" font-family="monospace" font-size="13" font-weight="bold">glyph I</text>
<text x="75.0" y="132" text-anchor="middle" fill="#E06A3C" font-family="monospace" font-size="10" letter-spacing="1">MISLABELLED</text>
<text x="75.0" y="158" text-anchor="middle" fill="#E9E4D6" font-family="Georgia,serif" font-size="26" letter-spacing="2">M</text>
</g>
<g transform="translate(564,190)">
<rect width="150" height="168" rx="8" fill="#0C0C14" stroke="#1E1E2A" stroke-width="1"/>
<rect x="34" y="26" width="82" height="84" rx="4" fill="none" stroke="#1E1E2A" stroke-dasharray="4 4"/>
<text x="75.0" y="74" text-anchor="middle" fill="#2E2E3C" font-family="monospace" font-size="11">place</text>
<text x="75.0" y="92" text-anchor="middle" fill="#77748A" font-family="monospace" font-size="13" font-weight="bold">glyph N</text>
<text x="75.0" y="158" text-anchor="middle" fill="#E9E4D6" font-family="Georgia,serif" font-size="26" letter-spacing="2">N</text>
</g>
<g transform="translate(732,190)">
<rect width="150" height="168" rx="8" fill="#0C0C14" stroke="#E06A3C" stroke-width="1.6"/>
<rect x="34" y="26" width="82" height="84" rx="4" fill="none" stroke="#1E1E2A" stroke-dasharray="4 4"/>
<text x="75.0" y="74" text-anchor="middle" fill="#2E2E3C" font-family="monospace" font-size="11">place</text>
<text x="75.0" y="92" text-anchor="middle" fill="#E06A3C" font-family="monospace" font-size="13" font-weight="bold">glyph C</text>
<text x="75.0" y="132" text-anchor="middle" fill="#E06A3C" font-family="monospace" font-size="10" letter-spacing="1">MISLABELLED</text>
<text x="75.0" y="158" text-anchor="middle" fill="#E9E4D6" font-family="Georgia,serif" font-size="26" letter-spacing="2">O</text>
</g>
<g transform="translate(900,190)">
<rect width="150" height="168" rx="8" fill="#0C0C14" stroke="#1E1E2A" stroke-width="1"/>
<rect x="34" y="26" width="82" height="84" rx="4" fill="none" stroke="#1E1E2A" stroke-dasharray="4 4"/>
<text x="75.0" y="74" text-anchor="middle" fill="#2E2E3C" font-family="monospace" font-size="11">place</text>
<text x="75.0" y="92" text-anchor="middle" fill="#77748A" font-family="monospace" font-size="13" font-weight="bold">glyph B</text>
<text x="75.0" y="158" text-anchor="middle" fill="#E9E4D6" font-family="Georgia,serif" font-size="26" letter-spacing="2">B</text>
</g>
<g transform="translate(60,384)">
<rect width="150" height="168" rx="8" fill="#0C0C14" stroke="#1E1E2A" stroke-width="1"/>
<rect x="34" y="26" width="82" height="84" rx="4" fill="none" stroke="#1E1E2A" stroke-dasharray="4 4"/>
<text x="75.0" y="74" text-anchor="middle" fill="#2E2E3C" font-family="monospace" font-size="11">place</text>
<text x="75.0" y="92" text-anchor="middle" fill="#77748A" font-family="monospace" font-size="13" font-weight="bold">glyph D</text>
<text x="75.0" y="158" text-anchor="middle" fill="#E9E4D6" font-family="Georgia,serif" font-size="26" letter-spacing="2">D</text>
</g>
<g transform="translate(228,384)">
<rect width="150" height="168" rx="8" fill="#0C0C14" stroke="#1E1E2A" stroke-width="1"/>
<rect x="34" y="26" width="82" height="84" rx="4" fill="none" stroke="#1E1E2A" stroke-dasharray="4 4"/>
<text x="75.0" y="74" text-anchor="middle" fill="#2E2E3C" font-family="monospace" font-size="11">place</text>
<text x="75.0" y="92" text-anchor="middle" fill="#77748A" font-family="monospace" font-size="13" font-weight="bold">glyph Y</text>
<text x="75.0" y="158" text-anchor="middle" fill="#E9E4D6" font-family="Georgia,serif" font-size="26" letter-spacing="2">Y</text>
</g>
<g transform="translate(396,384)">
<rect width="150" height="168" rx="8" fill="#0C0C14" stroke="#1E1E2A" stroke-width="1"/>
<rect x="34" y="26" width="82" height="84" rx="4" fill="none" stroke="#1E1E2A" stroke-dasharray="4 4"/>
<text x="75.0" y="74" text-anchor="middle" fill="#2E2E3C" font-family="monospace" font-size="11">place</text>
<text x="75.0" y="92" text-anchor="middle" fill="#77748A" font-family="monospace" font-size="13" font-weight="bold">glyph W</text>
<text x="75.0" y="158" text-anchor="middle" fill="#E9E4D6" font-family="Georgia,serif" font-size="26" letter-spacing="2">W</text>
</g>
<g transform="translate(564,384)">
<rect width="150" height="168" rx="8" fill="#0C0C14" stroke="#1E1E2A" stroke-width="1"/>
<rect x="34" y="26" width="82" height="84" rx="4" fill="none" stroke="#1E1E2A" stroke-dasharray="4 4"/>
<text x="75.0" y="74" text-anchor="middle" fill="#2E2E3C" font-family="monospace" font-size="11">place</text>
<text x="75.0" y="92" text-anchor="middle" fill="#77748A" font-family="monospace" font-size="13" font-weight="bold">glyph H</text>
<text x="75.0" y="158" text-anchor="middle" fill="#E9E4D6" font-family="Georgia,serif" font-size="26" letter-spacing="2">H</text>
</g>
<g transform="translate(732,384)">
<rect width="150" height="168" rx="8" fill="#0C0C14" stroke="#1E1E2A" stroke-width="1"/>
<rect x="34" y="26" width="82" height="84" rx="4" fill="none" stroke="#1E1E2A" stroke-dasharray="4 4"/>
<text x="75.0" y="74" text-anchor="middle" fill="#2E2E3C" font-family="monospace" font-size="11">place</text>
<text x="75.0" y="92" text-anchor="middle" fill="#77748A" font-family="monospace" font-size="13" font-weight="bold">glyph R</text>
<text x="75.0" y="158" text-anchor="middle" fill="#E9E4D6" font-family="Georgia,serif" font-size="26" letter-spacing="2">R</text>
</g>
<g transform="translate(900,384)">
<rect width="150" height="168" rx="8" fill="#0C0C14" stroke="#1E1E2A" stroke-width="1"/>
<rect x="34" y="26" width="82" height="84" rx="4" fill="none" stroke="#1E1E2A" stroke-dasharray="4 4"/>
<text x="75.0" y="74" text-anchor="middle" fill="#2E2E3C" font-family="monospace" font-size="11">place</text>
<text x="75.0" y="92" text-anchor="middle" fill="#77748A" font-family="monospace" font-size="13" font-weight="bold">glyph E</text>
<text x="75.0" y="158" text-anchor="middle" fill="#E9E4D6" font-family="Georgia,serif" font-size="26" letter-spacing="2">E</text>
</g>
<g transform="translate(60,578)">
<rect width="150" height="168" rx="8" fill="#0C0C14" stroke="#1E1E2A" stroke-width="1"/>
<rect x="34" y="26" width="82" height="84" rx="4" fill="none" stroke="#1E1E2A" stroke-dasharray="4 4"/>
<text x="75.0" y="74" text-anchor="middle" fill="#2E2E3C" font-family="monospace" font-size="11">place</text>
<text x="75.0" y="92" text-anchor="middle" fill="#77748A" font-family="monospace" font-size="13" font-weight="bold">glyph U</text>
<text x="75.0" y="158" text-anchor="middle" fill="#E9E4D6" font-family="Georgia,serif" font-size="26" letter-spacing="2">U</text>
</g>
<g transform="translate(228,578)">
<rect width="150" height="168" rx="8" fill="#0C0C14" stroke="#1E1E2A" stroke-width="1"/>
<rect x="34" y="26" width="82" height="84" rx="4" fill="none" stroke="#1E1E2A" stroke-dasharray="4 4"/>
<text x="75.0" y="74" text-anchor="middle" fill="#2E2E3C" font-family="monospace" font-size="11">place</text>
<text x="75.0" y="92" text-anchor="middle" fill="#77748A" font-family="monospace" font-size="13" font-weight="bold">glyph T</text>
<text x="75.0" y="158" text-anchor="middle" fill="#E9E4D6" font-family="Georgia,serif" font-size="26" letter-spacing="2">T</text>
</g>
<g transform="translate(396,578)">
<rect width="150" height="168" rx="8" fill="#0C0C14" stroke="#1E1E2A" stroke-width="1"/>
<rect x="34" y="26" width="82" height="84" rx="4" fill="none" stroke="#1E1E2A" stroke-dasharray="4 4"/>
<text x="75.0" y="74" text-anchor="middle" fill="#2E2E3C" font-family="monospace" font-size="11">place</text>
<text x="75.0" y="92" text-anchor="middle" fill="#77748A" font-family="monospace" font-size="13" font-weight="bold">glyph L</text>
<text x="75.0" y="158" text-anchor="middle" fill="#E9E4D6" font-family="Georgia,serif" font-size="26" letter-spacing="2">L</text>
</g>
<g transform="translate(564,578)">
<rect width="150" height="168" rx="8" fill="#0C0C14" stroke="#1E1E2A" stroke-width="1"/>
<rect x="34" y="26" width="82" height="84" rx="4" fill="none" stroke="#1E1E2A" stroke-dasharray="4 4"/>
<text x="75.0" y="74" text-anchor="middle" fill="#2E2E3C" font-family="monospace" font-size="11">place</text>
<text x="75.0" y="92" text-anchor="middle" fill="#77748A" font-family="monospace" font-size="13" font-weight="bold">glyph S</text>
<text x="75.0" y="158" text-anchor="middle" fill="#E9E4D6" font-family="Georgia,serif" font-size="26" letter-spacing="2">S</text>
</g>
<g transform="translate(732,578)">
<rect width="150" height="168" rx="8" fill="#0C0C14" stroke="#1E1E2A" stroke-width="1"/>
<rect x="34" y="26" width="82" height="84" rx="4" fill="none" stroke="#1E1E2A" stroke-dasharray="4 4"/>
<text x="75.0" y="74" text-anchor="middle" fill="#2E2E3C" font-family="monospace" font-size="11">place</text>
<text x="75.0" y="92" text-anchor="middle" fill="#77748A" font-family="monospace" font-size="13" font-weight="bold">glyph P</text>
<text x="75.0" y="158" text-anchor="middle" fill="#E9E4D6" font-family="Georgia,serif" font-size="26" letter-spacing="2">P</text>
</g>
<g transform="translate(900,578)">
<rect width="150" height="168" rx="8" fill="#0C0C14" stroke="#1E1E2A" stroke-width="1"/>
<rect x="34" y="26" width="82" height="84" rx="4" fill="none" stroke="#1E1E2A" stroke-dasharray="4 4"/>
<text x="75.0" y="74" text-anchor="middle" fill="#2E2E3C" font-family="monospace" font-size="11">place</text>
<text x="75.0" y="92" text-anchor="middle" fill="#77748A" font-family="monospace" font-size="13" font-weight="bold">glyph F</text>
<text x="75.0" y="158" text-anchor="middle" fill="#E9E4D6" font-family="Georgia,serif" font-size="26" letter-spacing="2">F</text>
</g>
<g transform="translate(60,772)">
<rect width="150" height="168" rx="8" fill="#0C0C14" stroke="#1E1E2A" stroke-width="1"/>
<rect x="34" y="26" width="82" height="84" rx="4" fill="none" stroke="#1E1E2A" stroke-dasharray="4 4"/>
<text x="75.0" y="74" text-anchor="middle" fill="#2E2E3C" font-family="monospace" font-size="11">place</text>
<text x="75.0" y="92" text-anchor="middle" fill="#77748A" font-family="monospace" font-size="13" font-weight="bold">glyph K</text>
<text x="75.0" y="158" text-anchor="middle" fill="#E9E4D6" font-family="Georgia,serif" font-size="26" letter-spacing="2">K</text>
</g>
<g transform="translate(228,772)">
<rect width="150" height="168" rx="8" fill="#0C0C14" stroke="#1E1E2A" stroke-width="1"/>
<rect x="34" y="26" width="82" height="84" rx="4" fill="none" stroke="#1E1E2A" stroke-dasharray="4 4"/>
<text x="75.0" y="74" text-anchor="middle" fill="#2E2E3C" font-family="monospace" font-size="11">place</text>
<text x="75.0" y="92" text-anchor="middle" fill="#77748A" font-family="monospace" font-size="13" font-weight="bold">glyph G</text>
<text x="75.0" y="158" text-anchor="middle" fill="#E9E4D6" font-family="Georgia,serif" font-size="26" letter-spacing="2">G</text>
</g>
<g transform="translate(396,772)">
<rect width="150" height="168" rx="8" fill="#0C0C14" stroke="#E06A3C" stroke-width="1.6"/>
<rect x="34" y="26" width="82" height="84" rx="4" fill="none" stroke="#1E1E2A" stroke-dasharray="4 4"/>
<text x="75.0" y="74" text-anchor="middle" fill="#2E2E3C" font-family="monospace" font-size="11">place</text>
<text x="75.0" y="92" text-anchor="middle" fill="#E06A3C" font-family="monospace" font-size="13" font-weight="bold">glyph M</text>
<text x="75.0" y="132" text-anchor="middle" fill="#E06A3C" font-family="monospace" font-size="10" letter-spacing="1">MISLABELLED</text>
<text x="75.0" y="158" text-anchor="middle" fill="#E9E4D6" font-family="Georgia,serif" font-size="26" letter-spacing="2">C</text>
</g>
<g transform="translate(598,772)">
<rect width="150" height="168" rx="8" fill="#0C0C14" stroke="#1E1E2A" stroke-width="1"/>
<g transform="translate(43,34) scale(2.6)"><path d="M4,4 L11,16 L4,28 M20,4 L13,16 L20,28" fill="none" stroke="#E9E4D6" stroke-width="1.5" stroke-linecap="round" stroke-linejoin="round"/></g>
<text x="75.0" y="132" text-anchor="middle" fill="#77748A" font-family="monospace" font-size="10" letter-spacing="1">NEW GLYPH</text>
<text x="75.0" y="158" text-anchor="middle" fill="#E9E4D6" font-family="Georgia,serif" font-size="26" letter-spacing="2">X</text>
</g>
<g transform="translate(766,772)">
<rect width="150" height="168" rx="8" fill="#0C0C14" stroke="#1E1E2A" stroke-width="1"/>
<rect x="34" y="26" width="82" height="84" rx="4" fill="none" stroke="#1E1E2A" stroke-dasharray="4 4"/>
<text x="75.0" y="74" text-anchor="middle" fill="#2E2E3C" font-family="monospace" font-size="11">place</text>
<text x="75.0" y="92" text-anchor="middle" fill="#77748A" font-family="monospace" font-size="13" font-weight="bold">glyph Z</text>
<text x="75.0" y="158" text-anchor="middle" fill="#E9E4D6" font-family="Georgia,serif" font-size="26" letter-spacing="2">Z</text>
</g>
<text x="60" y="972" fill="#E06A3C" font-family="monospace" font-size="12" letter-spacing="1">coral cells carry the wrong glyph — closed cycle  I &#8594; O &#8594; C &#8594; M &#8594; I</text>
<text x="60" y="994" fill="#4A4A5E" font-family="monospace" font-size="11">Latin letters are hand-formed: straight strokes, no curves. His hand does not know how to curve.</text>
<g transform="translate(994,930)"><path d="M10,0 V12 M14,18 V30 M4,11 L20,19" fill="none" stroke="#9C8FE8" stroke-width="2.4" stroke-linecap="round"/></g>
</svg>